<?xml version="1.0" encoding="UTF-8" standalone="no"?>
<!-- Created with Inkscape (http://www.inkscape.org/) -->

<svg
   width="210mm"
   height="297mm"
   viewBox="0 0 210 297"
   version="1.1"
   id="svg1"
   xmlns="http://www.w3.org/2000/svg"
   xmlns:svg="http://www.w3.org/2000/svg">
  <defs
     id="defs1" />
  <g
     id="layer1">
    <path
       style="fill:#000000;stroke-width:0.300461"
       d="m 132.14602,198.58301 c -0.47195,-0.35 -0.56612,-0.74375 -0.50805,-2.12428 0.0606,-1.43982 0.20796,-1.83005 0.98026,-2.59519 1.0186,-1.00915 1.53341,-1.11704 2.08956,-0.43787 0.57163,0.69807 -0.096,1.8992 -1.35105,2.43068 -0.80105,0.33922 -1.04392,0.61927 -1.04392,1.20371 0,0.88736 0.76106,1.29908 1.45822,0.78887 1.40934,-1.03141 2.10498,-0.67183 0.83815,0.43324 -0.95599,0.83393 -1.63286,0.9166 -2.46317,0.30084 z m 1.95752,-4.42074 c 0,-0.51925 -0.56661,-0.30944 -0.90745,0.33603 -0.30334,0.57443 -0.27883,0.59927 0.28795,0.29184 0.34073,-0.18482 0.6195,-0.46735 0.6195,-0.62787 z m -46.236192,3.98872 c -0.177448,-0.33604 -0.322635,-0.89691 -0.322635,-1.24636 0,-0.55042 -0.125624,-0.49037 -0.939435,0.44902 -1.801305,2.07927 -2.913954,0.68051 -1.992231,-2.50451 0.529895,-1.83105 1.313792,-2.34169 2.869571,-1.86928 l 1.178523,0.35787 -0.06419,2.53842 c -0.06927,2.73938 -0.226097,3.22835 -0.729605,2.27484 z m -1.044514,-2.40826 c 0.896811,-1.19037 0.98075,-1.43708 0.61504,-1.80773 -0.771176,-0.78159 -1.630968,-0.16623 -2.125393,1.52115 -0.249621,0.8519 -0.453853,1.65606 -0.453853,1.78701 0,0.54589 0.995379,-0.21446 1.964206,-1.50043 z m 40.412196,1.09909 c -0.002,-1.05198 -0.0851,-2.21896 -0.18404,-2.59328 -0.12775,-0.48314 -0.0508,-0.68059 0.26522,-0.68059 0.26109,0 0.52335,0.39609 0.63419,0.95782 l 0.18902,0.95782 0.66904,-0.61754 c 1.05591,-0.97462 2.02947,-1.40148 2.38186,-1.04433 0.20861,0.21143 -0.0241,0.44945 -0.73267,0.74952 -1.18618,0.50232 -2.40957,2.27789 -2.26854,3.29245 0.0633,0.45534 -0.0781,0.71513 -0.42772,0.78557 -0.45298,0.0913 -0.52283,-0.14856 -0.52636,-1.80744 z m -46.543949,0.98137 c -0.266615,-0.5049 -0.127344,-6.59339 0.158573,-6.93226 0.04915,-0.0583 0.236767,-0.0136 0.416935,0.0993 0.224431,0.14058 0.266669,1.19783 0.134147,3.35761 -0.208783,3.40266 -0.08373,3.66545 1.282713,2.69544 0.948423,-0.67327 1.127895,-0.006 0.197821,0.73523 -0.986819,0.78672 -1.78971,0.8031 -2.190189,0.0447 z m 9.722429,-1.90051 c -0.412816,-1.36674 -0.695751,-2.54056 -0.62874,-2.60847 0.354706,-0.3595 1.044676,0.34332 1.056397,1.07608 0.0074,0.46272 0.179919,1.23652 0.383365,1.71954 l 0.369901,0.87822 0.520086,-0.80447 c 0.286049,-0.44245 0.647428,-1.14392 0.803069,-1.55881 0.40853,-1.08902 0.745249,-0.93564 1.3253,0.60371 0.281454,0.74693 0.622681,1.42754 0.758286,1.51248 0.331441,0.20761 1.795611,-2.36197 1.795611,-3.15125 0,-0.72863 0.53475,-0.84039 0.79039,-0.16519 0.20865,0.55106 -1.975076,4.98316 -2.455239,4.98316 -0.183904,0 -0.584332,-0.61432 -0.889841,-1.36516 -0.305507,-0.75084 -0.695087,-1.31934 -0.865728,-1.26333 -0.17064,0.056 -0.622503,0.67032 -1.004136,1.36516 -0.381635,0.69483 -0.809593,1.26333 -0.951015,1.26333 -0.14142,0 -0.594887,-1.11825 -1.007706,-2.485 z m 11.15855,0.19117 c 0,-1.70169 0.0963,-2.26078 0.37307,-2.1658 0.23395,0.0803 0.37306,0.71025 0.37306,1.6894 0,0.85876 0.0205,1.56113 0.0456,1.56083 0.0251,-2.6e-4 0.52556,-0.73338 1.11217,-1.62909 0.58662,-0.89571 1.25484,-1.70178 1.48493,-1.79126 0.6034,-0.23467 1.08799,0.38123 1.08799,1.38282 0,0.97913 0.47195,2.037 0.90878,2.037 0.15998,0 0.52087,-0.27224 0.80196,-0.60497 0.59023,-0.69864 0.97534,-0.77918 0.97534,-0.20397 0,0.61648 -1.30332,1.71639 -2.0338,1.71639 -0.35875,0 -0.65607,-0.034 -0.66069,-0.0756 -0.005,-0.0416 -0.24382,-0.79451 -0.53155,-1.67315 l -0.52315,-1.59753 -1.26945,1.82439 c -1.74821,2.51243 -2.14425,2.42573 -2.14425,-0.46944 z m 7.95877,2.09217 c -0.33539,-0.33992 -0.2128,-2.30299 0.2231,-3.57244 0.57651,-1.6789 1.29852,-2.10929 2.78255,-1.65866 l 1.16614,0.3541 -0.0216,2.54655 c -0.0177,2.09225 -0.10145,2.53133 -0.46927,2.46124 -0.262,-0.0499 -0.48615,-0.4877 -0.54043,-1.0555 l -0.0928,-0.97018 -0.90814,1.04828 c -0.85121,0.98256 -1.68136,1.31104 -2.1396,0.84661 z m 2.36215,-2.46329 c 0.8968,-1.19037 0.98075,-1.43708 0.61503,-1.80773 -0.74371,-0.75376 -1.55878,-0.17257 -2.08828,1.48905 -0.27003,0.84738 -0.49096,1.6569 -0.49096,1.79894 0,0.56433 0.98058,-0.17466 1.96421,-1.48026 z m 4.72107,2.43346 c -0.53457,-0.36177 -1.01465,-1.48385 -1.01465,-2.37153 0,-0.45535 -0.22228,-1.07682 -0.49394,-1.38106 -0.46472,-0.52044 -0.45392,-0.55317 0.18244,-0.55317 0.61136,0 0.65754,-0.10176 0.48042,-1.05869 -0.15529,-0.83888 -0.10022,-1.05869 0.26523,-1.05869 0.44517,0 0.58834,0.47684 0.47682,1.58804 -0.0437,0.43555 0.19128,0.52934 1.32628,0.52934 1.6417,0 1.55422,0.44524 -0.14146,0.72006 -1.16148,0.18823 -1.20043,0.23248 -1.20043,1.36386 0,1.44442 0.57962,2.04091 1.49875,1.54236 0.783,-0.4247 1.11038,-0.17772 0.59641,0.44993 -0.3977,0.48567 -1.42162,0.60462 -1.97587,0.22955 z m 3.47477,-0.34959 c -0.39772,-0.75318 -0.0515,-4.32307 0.40405,-4.16602 0.20447,0.0705 0.29232,0.76302 0.23156,1.82538 -0.0631,1.1038 0.0187,1.71179 0.2305,1.71179 0.49579,0 2.9514,-2.38936 3.16868,-3.08318 0.1323,-0.42246 0.28525,-0.51123 0.50214,-0.29141 0.21689,0.21981 0.19756,0.59585 -0.0635,1.2345 -0.20644,0.50513 -0.29042,1.26135 -0.18663,1.68049 0.15098,0.60965 0.37398,0.76208 1.11495,0.76208 0.80289,0 0.87508,0.0625 0.54215,0.46902 -0.63412,0.77438 -1.87151,0.42684 -2.20841,-0.62026 -0.16058,-0.4991 -0.32472,-0.95786 -0.36473,-1.01947 -0.04,-0.0616 -0.53134,0.38077 -1.09181,0.98307 -1.1388,1.22378 -1.82274,1.37803 -2.279,0.51401 z m 26.2031,-17.92756 c -1.30175,-0.45541 -1.74127,-1.85688 -1.75139,-5.58448 l -0.009,-3.2816 -1.1103,1.27997 c -1.9035,2.19439 -4.6787,2.88994 -5.63413,1.41208 -0.43779,-0.67716 -0.4591,-0.97359 -0.1533,-2.13237 0.71503,-2.70954 2.78504,-4.64321 4.97061,-4.64321 1.47249,0 1.73009,0.18389 1.32701,0.94723 -0.21026,0.39816 -0.63024,0.56519 -1.4212,0.56519 -0.90511,0 -1.33353,0.21988 -2.21013,1.13431 -0.98057,1.02288 -1.71984,2.36407 -1.71984,3.12015 0,0.42304 1.28518,0.34111 2.4258,-0.15465 1.51691,-0.65931 3.54328,-2.97474 3.54328,-4.04874 0,-1.02117 0.57608,-1.64794 1.17174,-1.27483 0.30495,0.19101 0.35354,0.65164 0.19583,1.85651 -0.31316,2.39265 -0.23368,7.49243 0.1344,8.62278 0.24027,0.73785 0.52307,1.01616 1.10363,1.0861 0.42932,0.0517 0.83268,0.25497 0.89635,0.45166 0.18495,0.57134 -0.86674,0.95621 -1.75946,0.6439 z m -78.818239,-1.25995 c -0.991347,-0.93171 -1.030275,-1.29706 -0.167752,-1.57451 0.473052,-0.15217 0.794645,-0.0328 1.16704,0.43334 0.612731,0.7669 2.262791,0.86541 3.513773,0.20977 0.977717,-0.51242 1.530633,-2.08048 1.530633,-4.34084 0,-2.57663 -0.160472,-2.66781 -1.896967,-1.07784 -2.91946,2.6731 -4.471292,3.18629 -5.380831,1.77942 -0.596533,-0.92271 -0.601904,-1.45779 -0.03408,-3.39568 0.609393,-2.07974 2.333482,-3.99765 3.80252,-4.22999 1.245865,-0.19705 2.017088,0.24214 2.017088,1.14868 0,0.62484 -0.592429,0.75396 -1.099833,0.2397 -0.376614,-0.38169 -1.726504,0.22028 -2.531899,1.12909 -0.713073,0.80464 -1.506188,2.96696 -1.390036,3.78978 0.131932,0.93462 1.119561,0.82689 2.569607,-0.28027 2.350876,-1.79498 3.049069,-2.83712 3.049069,-4.5511 0,-1.061 0.09546,-1.29709 0.492601,-1.21824 0.874623,0.17364 1.368142,2.28375 1.402405,5.99622 0.02477,2.68505 -0.0786,3.68572 -0.45321,4.38671 -0.889357,1.66422 -1.615524,2.08977 -3.776736,2.21327 -1.803646,0.10307 -2.070489,0.0407 -2.813392,-0.65751 z m -7.123608,-3.42097 c -0.265657,-0.0719 -0.724376,-0.5849 -1.019378,-1.14009 -0.478327,-0.90018 -0.498359,-1.24269 -0.185129,-3.16499 0.340807,-2.09152 0.503235,-2.39844 2.21766,-4.19047 0.7883,-0.82398 1.741136,-0.8744 2.408135,-0.12742 0.585644,0.65586 0.615484,1.45483 0.09017,2.41427 -0.485351,0.88645 -1.940049,1.86771 -2.772682,1.8703 -0.677942,0.002 -1.001906,0.52914 -1.001906,1.6299 0,1.73619 1.672506,1.83175 3.663114,0.20927 0.821357,-0.66947 1.343943,0.0279 0.731184,0.97567 -0.796547,1.2321 -2.663465,1.92061 -4.13117,1.52356 z m 2.033249,-6.57929 c 0.460563,-0.40177 0.730221,-0.83933 0.599234,-0.97238 -0.303279,-0.30804 -1.077249,0.18283 -1.63811,1.03894 -0.583578,0.89079 -0.01699,0.85448 1.038876,-0.0666 z m 98.992688,6.57178 c -0.34814,-0.0693 -0.87989,-0.59065 -1.18167,-1.15858 -0.4938,-0.9293 -0.5127,-1.24534 -0.18891,-3.15899 0.34691,-2.05035 0.56505,-2.47211 2.12176,-4.10223 1.68871,-1.76835 3.80874,0.0325 2.6118,2.21861 -0.48535,0.88645 -1.94005,1.86771 -2.77268,1.8703 -0.67794,0.002 -1.00191,0.52914 -1.00191,1.6299 0,1.73619 1.67251,1.83175 3.66312,0.20927 0.39211,-0.31961 0.61639,-0.34324 0.86511,-0.0912 0.48702,0.49359 -0.3594,1.6759 -1.64105,2.29229 -1.03619,0.49835 -1.28491,0.52754 -2.47557,0.29059 z m 1.88477,-6.57178 c 0.46057,-0.40177 0.73022,-0.83933 0.59924,-0.97238 -0.30328,-0.30804 -1.07725,0.18283 -1.63811,1.03894 -0.58358,0.89079 -0.017,0.85448 1.03887,-0.0666 z m -57.08753,5.72546 c -0.77166,-1.19359 -0.14363,-4.57288 1.17562,-6.32586 1.29935,-1.72653 3.0409,-1.63264 4.30148,0.2319 0.86845,1.28453 0.84336,2.70534 -0.0759,4.29503 -1.30197,2.25164 -4.43414,3.29483 -5.40124,1.79893 z m 3.74295,-1.62084 c 0.66351,-0.6397 1.20638,-1.4361 1.20638,-1.76976 0,-1.01564 -0.62903,-2.50798 -1.18402,-2.80901 -0.96021,-0.52083 -2.55495,1.89306 -2.89068,4.37548 -0.18475,1.36612 -0.1846,1.36639 0.73858,1.36639 0.66293,0 1.26362,-0.32805 2.12974,-1.1631 z m -32.387493,1.44565 c -0.384733,-0.43086 -0.541031,-1.01983 -0.503372,-1.8968 0.05396,-1.25663 0.938683,-4.45783 1.554122,-5.62331 0.447408,-0.84728 2.055924,-1.083 3.427318,-0.50226 0.618498,0.26191 1.229357,0.41055 1.357473,0.3303 0.405564,-0.25404 0.9749,0.72098 0.747644,1.28038 -0.119134,0.29326 -0.320498,1.54822 -0.447474,2.78881 -0.180988,1.76829 -0.137014,2.40078 0.203536,2.92755 0.397045,0.61414 0.378566,0.70222 -0.214865,1.0241 -0.88668,0.48094 -1.143005,0.1284 -1.447895,-1.99142 -0.142079,-0.98779 -0.274696,-1.57752 -0.294712,-1.31051 -0.03824,0.51003 -3.088209,3.59806 -3.553719,3.59806 -0.148535,0 -0.52116,-0.28121 -0.828056,-0.6249 z m 2.636052,-2.76054 c 1.866291,-2.01469 2.472499,-3.15541 1.989989,-3.74464 -0.436332,-0.53285 -1.799042,-0.56328 -2.413085,-0.0539 -0.75543,0.62668 -1.947457,5.36908 -1.349546,5.36908 0.174781,0 0.97247,-0.70674 1.772642,-1.57054 z m 18.793836,2.7444 c -0.53458,-0.34697 -1.03293,-0.92318 -1.10744,-1.28046 -0.0745,-0.35729 -0.1072,-2.92806 -0.0726,-5.71284 0.0453,-3.6507 0.16426,-5.10267 0.42636,-5.20462 0.70437,-0.27398 1.02325,0.93362 0.99405,3.76446 -0.0112,1.08138 -0.0984,2.44255 -0.19386,3.02483 l -0.17356,1.05869 0.65614,-1.20993 c 1.963695,-3.62108 3.229015,-4.11774 4.184615,-1.64252 0.59804,1.54906 0.83077,4.2762 0.46285,5.42356 -0.13337,0.41592 -0.58829,1.13053 -1.01094,1.58804 -0.9661,1.04579 -2.72421,1.12631 -4.165595,0.19079 z m 3.068905,-1.05559 c 0.84485,-0.56104 1.43852,-2.41829 1.17029,-3.66111 -0.28497,-1.32035 -0.77943,-2.50683 -1.04471,-2.50683 -0.43304,0 -1.51277,1.78956 -2.09809,3.47737 -0.727595,2.09807 -0.718345,2.35545 0.0994,2.76591 0.94536,0.47452 1.0515,0.47026 1.87309,-0.0753 z m 30.1263,0.96773 c -0.37299,-0.57694 -0.41169,-1.27577 -0.22116,-3.99312 0.21758,-3.10313 0.26982,-3.29938 0.90247,-3.39044 0.60975,-0.0878 0.67152,0.0267 0.67152,1.24426 0,0.73751 -0.13566,2.06594 -0.30147,2.95206 -0.39673,2.1202 -0.0672,2.44247 1.42544,1.39409 1.28149,-0.90006 1.86058,-1.01633 1.86058,-0.37356 0,0.54543 -1.932,2.17592 -3.04368,2.56869 -0.72533,0.25627 -0.90405,0.20073 -1.2937,-0.40198 z m -78.484665,-0.58817 c -0.271695,-0.65902 -0.367003,-1.63955 -0.27197,-2.79797 0.08047,-0.98086 0.185258,-3.04171 0.232868,-4.57966 0.04761,-1.53796 0.171053,-2.88192 0.274322,-2.98658 0.103272,-0.10467 0.409805,-0.10395 0.681188,0.002 0.440815,0.17144 0.469144,0.61886 0.265695,4.19651 -0.279974,4.92333 -0.272145,5.34926 0.105365,5.73187 0.313423,0.31766 2.1458,-0.56726 2.1458,-1.03627 0,-0.35318 0.829829,-0.28697 1.056211,0.0843 0.441034,0.72324 -1.861365,2.4008 -3.295025,2.4008 -0.598533,0 -0.871913,-0.23221 -1.194454,-1.01458 z m 33.42685,0 c -0.271696,-0.65902 -0.367004,-1.63955 -0.271968,-2.79797 0.08047,-0.98086 0.185256,-3.04171 0.232865,-4.57966 0.04761,-1.53796 0.171053,-2.88192 0.274323,-2.98658 0.103272,-0.10467 0.409805,-0.10395 0.681188,0.002 0.440814,0.17144 0.469143,0.61886 0.265694,4.19651 -0.279974,4.92333 -0.272145,5.34926 0.105365,5.73187 0.313423,0.31766 2.145803,-0.56726 2.145803,-1.03627 0,-0.35318 0.829826,-0.28697 1.056209,0.0843 0.441036,0.72324 -1.861365,2.4008 -3.295023,2.4008 -0.598535,0 -0.871916,-0.23221 -1.194456,-1.01458 z m 27.778595,0.53925 c -0.60933,-0.61756 -0.69351,-6.63586 -0.0959,-6.85858 0.91997,-0.34288 1.05169,0.0963 0.89959,2.99919 -0.10779,2.05745 -0.0553,2.86457 0.18115,2.78422 0.91495,-0.31095 3.96978,-3.29479 4.52878,-4.42354 0.60539,-1.22243 1.24082,-1.61798 1.61458,-1.00507 0.0941,0.15427 -0.0826,0.93695 -0.3926,1.73928 -0.58445,1.51264 -0.54825,3.3719 0.0742,3.80945 0.1825,0.1283 0.75785,0.15815 1.27853,0.0663 1.1829,-0.20858 1.51779,0.2618 0.63338,0.88962 -1.42041,1.00833 -3.51397,0.16719 -3.5246,-1.41609 -0.008,-1.15422 -0.41176,-1.50819 -0.9043,-0.79232 -0.56837,0.82606 -2.94939,2.68283 -3.44031,2.68283 -0.2109,0 -0.5945,-0.2139 -0.85245,-0.47533 z m 11.9362,-0.002 c -0.87124,-0.88301 -1.159,-1.77069 -1.1427,-3.52501 0.0117,-1.25426 -0.0948,-1.74473 -0.37888,-1.74473 -0.55547,0 -1.37594,-0.89496 -1.15405,-1.25883 0.10149,-0.16643 0.51841,-0.21767 0.92649,-0.11387 0.72902,0.18545 0.74016,0.16083 0.63896,-1.41228 -0.0944,-1.46713 -0.0468,-1.6091 0.56853,-1.69768 0.70188,-0.10103 0.81875,0.3181 0.68065,2.4409 -0.054,0.82966 -0.0489,0.83183 1.9332,0.83183 2.55616,0 2.51093,0.64387 -0.0718,1.02135 -1.80348,0.26359 -1.81484,0.27155 -1.94352,1.36117 -0.28954,2.45177 0.93473,4.1393 2.30315,3.17468 0.76362,-0.53829 1.35124,-0.5289 1.35124,0.0216 0,1.17343 -2.77725,1.84768 -3.71131,0.90102 z m 22.68446,0.002 c -0.69062,-0.69994 -0.68579,-6.63522 0.006,-6.90412 0.85468,-0.3324 0.96437,0.0838 0.79935,3.03315 -0.11734,2.09725 -0.0684,2.88014 0.17493,2.79746 0.91899,-0.31229 3.97318,-3.29339 4.53369,-4.4252 0.63752,-1.28731 1.35597,-1.65937 1.65896,-0.85913 0.0888,0.23454 -0.0663,0.87269 -0.34455,1.41813 -0.58639,1.14927 -0.62904,3.58456 -0.0694,3.96062 0.21061,0.14152 0.80895,0.18219 1.32964,0.0904 1.1829,-0.20858 1.51779,0.2618 0.63338,0.88962 -1.51349,1.07441 -3.52003,0.14804 -3.52003,-1.62511 0,-1.13536 -0.36999,-1.36724 -0.91562,-0.57383 -0.56276,0.81834 -2.94528,2.67336 -3.43356,2.67336 -0.2109,0 -0.5945,-0.2139 -0.85245,-0.47533 z m -17.77933,-9.98022 c 0,-0.90988 1.89769,-2.9929 2.50975,-2.75486 0.78824,0.30656 0.54167,0.92953 -0.77328,1.95381 -1.18773,0.92518 -1.73647,1.17832 -1.73647,0.80105 z m -89.031536,-13.7431 c -0.525548,-1.53331 -0.456814,-3.29619 0.178099,-4.56785 0.704014,-1.41007 7.512827,-7.95675 20.309911,-19.52799 11.228604,-10.15302 12.963959,-11.54719 16.268192,-13.06975 1.155438,-0.53242 1.27889,-0.54246 1.129895,-0.0919 -0.092,0.27819 -0.496319,1.45862 -0.898486,2.62319 -0.402166,1.16456 -1.346872,5.58837 -2.099341,9.83071 -2.426822,13.68203 -2.681867,16.20059 -1.77365,17.51475 0.449606,0.65057 0.644048,0.69624 2.31186,0.54297 2.30233,-0.21159 1.735579,0.11345 -1.987381,1.13979 -2.949091,0.813 -3.903324,0.81036 -4.214556,-0.0116 -0.09423,-0.24888 0.155306,-2.56661 0.554525,-5.1505 0.750707,-4.85887 0.7137,-5.59017 -0.329473,-6.51067 -1.012319,-0.89329 -2.586529,-1.12928 -8.316348,-1.2467 l -5.670627,-0.11621 -3.697354,3.64935 c -3.812452,3.76296 -8.186578,8.71351 -9.803651,11.09557 -0.506867,0.74665 -1.120595,2.03099 -1.36384,2.85409 -0.254939,0.86268 -0.508129,1.30436 -0.597775,1.04281 z m 31.133028,-18.98081 c 7.94e-4,-0.12478 0.603451,-3.62027 1.339077,-7.76776 0.735629,-4.14749 1.275551,-7.60369 1.199822,-7.68044 -0.422404,-0.42811 -16.269356,13.69745 -16.269356,14.50208 0,0.5028 1.43578,0.68857 6.715215,0.86885 3.118845,0.10649 5.97281,0.21849 6.342147,0.24888 0.369337,0.0304 0.67223,-0.0468 0.673095,-0.17161 z m 17.42804,17.65792 c -2.135806,-0.98037 -2.255054,-4.59946 -0.299013,-9.07479 0.427154,-0.97731 0.776642,-1.82843 0.776642,-1.89139 0,-0.063 -0.496012,0.46441 -1.102244,1.17195 -3.87283,4.51998 -6.047269,6.27739 -7.766981,6.27739 -4.528436,0 1.809192,-10.77318 8.246279,-14.01766 1.216801,-0.6133 2.721552,-1.19761 3.343884,-1.29847 1.399669,-0.22683 1.42558,-0.25794 4.375406,-5.25273 4.901185,-8.29887 10.009045,-15.21474 14.985585,-20.28993 4.12143,-4.20313 7.80489,-6.383714 10.8974,-6.451183 1.85084,-0.04038 2.12207,0.354516 1.3177,1.918563 -0.55568,1.08049 -0.75346,1.24073 -1.28573,1.0417 -0.34597,-0.12937 -1.56916,-0.24226 -2.71821,-0.25088 -2.76433,-0.0207 -4.34268,0.77691 -7.41574,3.7477 -3.68748,3.56475 -7.6144,9.12495 -13.76304,19.48731 -5.993522,10.10096 -9.711217,18.45475 -9.711217,21.82146 0,1.40396 0.108281,1.70392 0.819885,2.27122 0.649142,0.51752 1.059662,0.61477 1.971279,0.46703 1.590391,-0.25775 2.540587,-0.80741 4.444668,-2.57113 1.35478,-1.2549 1.666175,-1.73428 1.804245,-2.77759 0.21602,-1.6323 1.70719,-4.59291 3.31194,-6.57563 2.71016,-3.34847 7.65071,-6.69642 9.88187,-6.69642 0.62116,0 1.36373,-0.32239 2.09012,-0.90744 0.61967,-0.4991 1.23152,-0.90745 1.35967,-0.90745 0.12815,0 0.47866,-0.0956 0.7789,-0.21231 0.52387,-0.20374 0.52485,-0.17976 0.0244,0.59432 -0.73001,1.12918 -0.6545,1.43288 0.35626,1.43288 0.48276,0 0.95348,0.12418 1.04603,0.27597 0.0936,0.15342 -0.44007,0.25415 -1.20179,0.22686 l -1.37008,-0.0491 -2.06244,3.93228 c -3.36077,6.40772 -4.49506,9.96892 -3.49731,10.98014 0.98019,0.99342 3.74825,-0.14265 7.18998,-2.95093 3.11123,-2.53862 4.75438,-4.52374 7.09591,-8.57271 1.41708,-2.4504 2.11842,-3.38878 2.53278,-3.38878 1.201,0 0.88636,1.20339 -1.38401,5.29345 l -1.2593,2.26863 2.4187,-2.48195 c 4.76844,-4.89312 7.03928,-4.82515 4.82246,0.14434 l -0.90783,2.03512 2.02704,-2.01521 c 2.61017,-2.59493 6.55975,-5.45258 7.37253,-5.33427 1.06338,0.1548 0.87445,1.05535 -0.95623,4.55793 -3.1706,6.0662 -4.49823,9.75321 -3.91184,10.86368 1.1743,2.22382 8.13019,-2.65189 11.0845,-7.76964 0.67227,-1.16456 2.06882,-3.44453 3.10345,-5.0666 1.56331,-2.4509 2.00872,-2.94921 2.63613,-2.94921 0.41523,0 0.85234,-0.0102 0.97134,-0.0227 0.58727,-0.0616 0.2273,0.76483 -1.56524,3.59343 -2.55392,4.03004 -4.91867,8.71823 -4.91867,9.7514 0,0.45127 0.20333,0.99152 0.45184,1.20055 0.59371,0.49938 2.69485,0.20671 4.42155,-0.61589 1.20545,-0.57428 1.33254,-0.74196 1.49982,-1.97888 0.10052,-0.74329 0.39065,-1.75886 0.64472,-2.25683 0.60215,-1.18013 3.96195,-5.13385 4.36266,-5.13385 0.17041,0 -0.22505,0.61588 -0.87882,1.36863 -1.41418,1.62828 -2.04742,2.89694 -2.3254,4.65883 -0.19116,1.21161 -0.16647,1.27963 0.36063,0.99344 0.31121,-0.16897 2.00962,-1.69407 3.77423,-3.38912 2.99947,-2.88123 3.20838,-3.15792 3.20838,-4.2494 0,-1.62164 0.56585,-4.16375 1.2175,-5.46961 0.75926,-1.52152 2.25594,-2.73932 3.22637,-2.62517 0.72094,0.0848 0.77767,0.19889 0.76028,1.52911 -0.0159,1.21679 -0.25408,1.78689 -1.55138,3.71354 l -1.53259,2.27608 0.0356,3.09232 c 0.0403,3.49943 -0.27125,4.91812 -1.51715,6.90922 -1.15519,1.84614 -3.34505,2.98898 -5.72736,2.98898 -1.7691,0 -2.5258,-0.43725 -3.56643,-2.06083 l -0.44768,-0.69847 -1.66093,0.77125 c -1.64874,0.76559 -4.58024,1.33275 -5.88239,1.13806 -1.08023,-0.1615 -1.65731,-1.31395 -1.30518,-2.60648 0.16194,-0.59443 0.22513,-1.08078 0.14042,-1.08078 -0.0847,0 -1.00466,0.78997 -2.04432,1.75549 -2.98535,2.77246 -6.59289,4.2505 -8.23427,3.37366 -1.74523,-0.93233 -1.58783,-2.06526 1.0336,-7.43976 2.25819,-4.62979 3.06895,-6.67436 2.76773,-6.97966 -0.33604,-0.34056 -2.69904,1.53042 -5.25564,4.16132 -1.97096,2.02824 -2.93854,3.33086 -4.05644,5.46104 -1.56005,2.97271 -2.32037,3.78169 -2.81505,2.99522 -0.45515,-0.72361 -0.37335,-0.97749 1.12908,-3.50423 2.65442,-4.46414 3.96687,-7.98595 2.97859,-7.99266 -0.66457,-0.004 -5.98884,5.85101 -7.99234,8.7898 -2.0226,2.96681 -2.75708,3.47254 -2.92241,2.01225 -0.0894,-0.78994 0.23289,-1.52865 1.62198,-3.71728 0.39867,-0.62812 -0.0832,-0.32343 -1.67722,1.06054 -2.6409,2.29288 -4.93217,3.82669 -6.61589,4.42876 -4.1583,1.48694 -5.63613,-0.88785 -3.49385,-5.61442 l 0.89114,-1.96614 -1.95998,2.17081 c -2.41156,2.67097 -5.20575,4.63506 -6.59403,4.63506 -0.54613,0 -1.07495,-0.13445 -1.17516,-0.29878 -0.10021,-0.16433 -0.880385,0.38261 -1.733725,1.21543 -2.592447,2.5301 -5.512502,3.53567 -7.550556,2.60018 z m 69.669668,-4.11838 c 0.45127,-0.45736 0.99233,-1.35985 1.20236,-2.00553 0.47308,-1.45439 0.82364,-6.7699 0.44648,-6.7699 -0.14988,0 -1.20904,0.96077 -2.35369,2.13506 -1.14464,1.17428 -2.72552,2.63643 -3.51306,3.24923 -1.21758,0.94741 -1.40425,1.22772 -1.24715,1.87284 0.24003,0.98564 1.54345,2.36548 2.34708,2.48468 1.23986,0.18391 2.31039,-0.14789 3.11798,-0.96638 z m -55.56251,-1.91931 c 2.92742,-2.18413 4.9583,-4.83617 8.58551,-11.21141 l 0.84302,-1.48171 -1.30426,0.21138 c -1.7228,0.2792 -3.80186,1.667 -5.71932,3.81769 -3.26384,3.66086 -6.16096,9.97497 -4.57683,9.97497 0.22817,0 1.20551,-0.58991 2.17188,-1.31092 z m -17.080109,-1.95364 c 2.221429,-2.30407 5.195655,-6.36053 6.344711,-8.65337 l 0.742834,-1.48226 -1.520513,0.18252 c -2.114952,0.25386 -3.882263,1.58039 -6.046078,4.53812 -2.752347,3.7622 -4.226796,7.07453 -3.528663,7.92709 0.532336,0.65008 1.610561,-0.0258 4.007709,-2.5121 z m 78.531599,-11.73808 c 0.49657,-1.72521 0.33838,-2.54138 -0.49257,-2.54138 -0.96067,0 -1.54951,1.35975 -1.67791,3.87466 l -0.11877,2.32624 0.92269,-1.05869 c 0.50747,-0.58228 1.12242,-1.75265 1.36656,-2.60083 z m -10.3257,-7.24112 c -0.85745,-1.04711 0.91375,-3.18801 2.21789,-2.68081 1.0379,0.40365 0.17057,2.55581 -1.19657,2.96915 -0.39819,0.12038 -0.77336,0.0145 -1.02132,-0.28834 z"
       id="path1" />
  </g>
</svg>
